<?xml version="1.0" encoding="utf-8"?>
<!-- Generator: Adobe Illustrator 25.4.1, SVG Export Plug-In . SVG Version: 6.00 Build 0)  -->
<svg version="1.1" id="Capa_1" xmlns="http://www.w3.org/2000/svg" xmlns:xlink="http://www.w3.org/1999/xlink" x="0px" y="0px"
	 viewBox="0 0 168.3 67.2" style="enable-background:new 0 0 168.3 67.2;" xml:space="preserve">
<style type="text/css">
	.st0{fill:#213A73;}
	.st1{fill:#FFFFFF;}
	.st2{fill:#EA5327;}
</style>
<path class="st0" d="M162.5,0H25.1c-8.3,0-14.4,6.4-16,14.7C7.5,23.1,0,60.7,0,61.5c0,3.2,2.6,5.7,5.7,5.8h137.4
	c8.3,0,14.4-6.4,16-14.7c1.6-8.3,9.1-45.9,9.1-46.8C168.3,2.6,165.7,0,162.5,0"/>
<path class="st1" d="M54.9,41.8l1.5-6.7h2.1c2.9,0,5.3,0.8,5.3,3.5c-0.1,3-3.2,4.3-6.6,4.3c-0.5,0-1,0-1.5,0
	C54.7,42.8,54.9,41.8,54.9,41.8 M70.3,38.8c0-4-2.8-5.7-5.1-5.9c2.9-0.5,6.7-2.6,6.7-6.5c0-4.2-4.2-6.4-10.5-6.4
	c-2.9,0-5.7,0.2-8.2,0.6l-4.5,20.1c0,0-1.6,5.2,2.9,6.3c1.2,0.3,2.1,0.4,3.5,0.5C66.9,48.1,70.3,42.8,70.3,38.8 M58.8,24.6
	c0.5-0.1,1.6-0.1,2.7-0.1c2.4,0,4.1,0.8,4,2.8c-0.1,2.3-2.4,3.7-5.9,3.7h-1.3c-1,0-0.7-1.1-0.7-1.1L58.8,24.6z"/>
<path class="st1" d="M99.2,47.5c1,0,2.8-0.4,3.4-3.1c0.5-2.2,1.3-5.9,1.3-5.9c0.6,0,1.5,0.2,2.6,0.2c10.1,0,13.7-6.5,13.7-10.9
	c0-4.8-3.4-7.6-10.7-7.6c-3,0-5.6,0.1-8.1,0.7l-6,26.8H99.2z M107.4,24.8c0.5-0.1,1.4-0.1,2.6-0.1c2.4,0,4.3,0.7,4.3,3.5
	c0,2.9-2.2,5.7-6.4,5.7c-0.3,0-0.5,0-0.8,0c-1.9,0-1.4-1.6-1.4-1.6L107.4,24.8z"/>
<path class="st1" d="M80.6,35.7c0-4.4,2.8-10.9,9.3-10.9c1.7,0,4.7,0.4,6.5,2c0,0,0.7-2.2,0.8-3.1c0.2-0.9-0.2-2.4-2.9-3.3
	c-1.8-0.6-3.2-0.9-5.2-0.9C79,19.5,73.7,27.8,73.7,36c0,8.8,5.9,11.7,11.9,11.7c2.2,0,3.6-0.2,4.9-0.7c1.7-0.6,1.9-2.1,1.9-2.1
	l1-4.5c-2.6,1.9-4.5,2.2-6.2,2.2C83.1,42.6,80.6,39.9,80.6,35.7"/>
<path class="st2" d="M45.2,29.2c0.2,0.3,2.6,3.3,0.4,6.9c-2.4,3.9-9.1,8.4-11,9c-3.7,1.5-6.2-1.3-6.4-1.6c-0.7-0.9-0.8-1.1-1.2-1.7
	c-0.1,0.1,7.1-3.2,9.6-7.5c2.8-3.7,3-10.9,0-12.3c0.9,0.5,3.1,1.7,5,3.4C43.5,27.1,45.2,29.3,45.2,29.2"/>
<path class="st1" d="M37.8,32.2c1.6-3.8,1.3-9-1.2-10.1c-2.3-1.1-4.9,2-5,2.2c0,0-0.9,1-1.5,2.5c0.5,0.2,1.3,0.7,1.3,0.7
	C33.1,28.2,35.5,29.7,37.8,32.2"/>
<path class="st2" d="M138.3,29.2c0.2,0.3,2.6,3.3,0.4,6.9c-2.4,3.9-9.1,8.4-11,9c-3.7,1.5-6.2-1.3-6.4-1.6c-0.7-0.9-0.9-1.1-1.2-1.7
	c-0.1,0.1,7.1-3.2,9.6-7.5c2.8-3.7,3-10.9,0-12.3c0.9,0.5,3.1,1.7,5,3.4C136.7,27.1,138.4,29.3,138.3,29.2"/>
<path class="st1" d="M131,32.2c1.6-3.8,1.3-9-1.2-10.1c-2.3-1.1-4.9,2-5,2.2c0,0-0.9,1-1.5,2.5c0.4,0.2,1.3,0.7,1.3,0.7
	C126.3,28.2,128.7,29.7,131,32.2"/>
</svg>
