<svg width="32" height="32" viewBox="0 0 32 32" fill="none" xmlns="http://www.w3.org/2000/svg">
<path fill-rule="evenodd" clip-rule="evenodd" d="M23.5393 19.1137C23.1518 18.9198 21.247 17.9828 20.8918 17.8536C20.5367 17.7243 20.2784 17.6597 20.0201 18.0474C19.7618 18.4352 19.0193 19.3076 18.7933 19.5661C18.5673 19.8245 18.3413 19.8569 17.9539 19.663C17.5664 19.4692 16.3181 19.0601 14.8382 17.7406C13.6865 16.7136 12.9089 15.4452 12.6828 15.0574C12.4569 14.6697 12.6588 14.4601 12.8528 14.2669C13.027 14.0935 13.2402 13.8146 13.4339 13.5884C13.6276 13.3622 13.6922 13.2007 13.8213 12.9422C13.9505 12.6837 13.8859 12.4575 13.789 12.2636C13.6922 12.0698 12.9174 10.1634 12.5945 9.38786C12.28 8.63263 11.9606 8.73481 11.7228 8.72297C11.497 8.71173 11.2385 8.70934 10.9802 8.70934C10.7219 8.70934 10.3022 8.80632 9.947 9.19399C9.59188 9.58174 8.591 10.5189 8.591 12.4252C8.591 14.3316 9.97932 16.1733 10.173 16.4319C10.3668 16.6904 12.9051 20.6026 16.7916 22.2802C17.716 22.6793 18.4377 22.9176 19.0004 23.0962C19.9285 23.3909 20.7731 23.3493 21.4407 23.2496C22.1851 23.1384 23.733 22.3126 24.0559 21.4079C24.3787 20.5031 24.3787 19.7276 24.2819 19.5661C24.185 19.4045 23.9267 19.3076 23.5393 19.1137ZM16.4711 28.7626H16.4659C14.1533 28.7617 11.885 28.1406 9.9063 26.9667L9.43565 26.6874L4.55784 27.9667L5.85984 23.2123L5.55335 22.7249C4.26327 20.6736 3.58192 18.3026 3.58289 15.8682C3.58572 8.76456 9.36728 2.98523 16.4762 2.98523C19.9186 2.98657 23.1545 4.32849 25.5878 6.76371C28.021 9.19901 29.3604 12.4361 29.359 15.8787C29.3561 22.9829 23.5746 28.7626 16.4711 28.7626ZM27.4403 4.91257C24.5128 1.98257 20.6195 0.368204 16.4716 0.366566C7.92489 0.366566 0.968919 7.31986 0.965493 15.8666C0.964375 18.5986 1.67835 21.2655 3.03524 23.6161L0.835449 31.6487L9.05544 29.4932C11.3202 30.7281 13.8702 31.3788 16.4654 31.38H16.4717H16.4718C25.0176 31.38 31.9742 24.4258 31.9777 15.879C31.9793 11.7371 30.3679 7.84249 27.4403 4.91257Z" fill="white"/>
</svg>
